<?xml version="1.0" standalone="no"?>
<!DOCTYPE svg PUBLIC "-//W3C//DTD SVG 20010904//EN"
 "http://www.w3.org/TR/2001/REC-SVG-20010904/DTD/svg10.dtd">
<svg version="1.0" xmlns="http://www.w3.org/2000/svg"
 width="1440.000000pt" height="1440.000000pt" viewBox="0 0 1440.000000 1440.000000"
 preserveAspectRatio="xMidYMid meet">
<metadata>
Created by potrace 1.11, written by Peter Selinger 2001-2013
</metadata>
<g transform="translate(0.000000,1440.000000) scale(0.100000,-0.100000)"
fill="#000000" stroke="none">
<path d="M6800 11394 c-60 -11 -73 -16 -111 -51 -57 -52 -89 -119 -89 -187 0
-70 20 -112 75 -155 24 -19 51 -52 61 -72 16 -37 16 -38 -15 -81 -68 -95 -78
-259 -24 -375 31 -66 118 -159 157 -169 31 -8 32 -13 5 -99 -11 -37 -18 -69
-15 -73 10 -9 15 1 50 115 19 61 37 116 41 122 9 16 35 14 35 -3 0 -43 108
-122 214 -157 36 -12 66 -27 66 -33 0 -21 -28 -157 -33 -163 -3 -3 -21 0 -38
6 l-33 11 21 -22 c34 -37 83 -145 83 -180 -1 -29 -4 -25 -26 31 -36 94 -90
161 -160 198 -216 113 -484 35 -705 -205 -84 -91 -200 -245 -257 -341 -26 -44
-118 -187 -206 -317 -87 -131 -177 -272 -199 -313 -22 -42 -50 -89 -62 -106
-46 -65 -135 -234 -135 -258 0 -19 14 -38 51 -69 28 -24 74 -62 101 -86 27
-23 67 -54 89 -69 l39 -25 -26 -32 c-15 -17 -68 -78 -119 -136 -157 -178 -281
-336 -348 -443 -27 -44 -110 -77 -223 -88 -53 -6 -99 -8 -102 -5 -3 3 20 17
51 32 85 38 76 59 -19 44 -109 -18 -232 -30 -248 -24 -9 3 -16 12 -16 19 0 8
-19 14 -51 17 -55 6 -73 17 -64 40 6 15 142 49 258 64 26 4 50 11 54 17 9 14
-113 1 -211 -24 -44 -10 -81 -17 -84 -14 -10 9 104 55 178 71 78 17 113 34 69
34 -13 0 -49 -7 -79 -15 -107 -28 -70 12 45 50 56 18 121 29 215 37 74 6 136
11 136 12 11 11 196 297 239 369 62 104 71 142 13 55 -19 -29 -88 -133 -152
-230 l-117 -178 -62 0 c-100 -1 -167 -11 -257 -37 -101 -29 -144 -52 -148 -79
-2 -12 -16 -25 -36 -32 -46 -17 -77 -54 -83 -101 -5 -37 -3 -41 21 -51 15 -5
38 -10 50 -10 13 0 33 -9 46 -20 13 -11 35 -20 49 -20 36 0 191 19 216 27 14
4 10 -3 -12 -21 -50 -42 -44 -56 25 -56 130 0 303 53 319 97 34 93 476 625
505 607 4 -3 101 83 215 190 114 108 208 194 210 192 2 -2 -1 -16 -8 -32 -6
-16 -51 -200 -100 -408 -49 -209 -96 -402 -104 -430 -19 -62 -19 -59 8 -52 22
5 534 9 793 6 107 -1 131 2 195 24 40 14 85 34 99 44 38 29 70 44 70 34 0 -5
-16 -20 -35 -33 -18 -13 -36 -33 -39 -44 -8 -30 -79 -138 -112 -169 -16 -15
-47 -38 -69 -51 -45 -26 -187 -65 -239 -65 -24 0 -36 -5 -40 -17 -3 -10 -35
-169 -71 -353 -146 -741 -192 -921 -257 -994 -49 -56 -178 -119 -398 -194 -96
-33 -233 -81 -305 -107 -336 -122 -716 -243 -695 -222 3 3 145 53 315 112 855
292 1022 360 1074 434 34 49 81 196 117 366 128 610 246 1207 240 1213 -2 2
-84 3 -182 3 -123 -1 -180 -5 -185 -13 -4 -6 -19 -77 -34 -157 -15 -80 -43
-225 -62 -321 -19 -96 -39 -200 -44 -230 -20 -110 -119 -566 -136 -620 -9 -30
-17 -57 -17 -60 -3 -13 -19 -31 -39 -41 -15 -7 -12 -3 8 15 36 30 29 33 -17 7
-42 -25 -456 -205 -743 -323 -222 -91 -470 -184 -557 -208 -26 -7 -60 -24 -74
-39 -24 -24 -26 -31 -21 -87 l6 -62 -139 -46 c-77 -25 -141 -46 -144 -46 -3 0
-3 6 0 14 13 35 -66 75 -241 122 -49 13 -117 27 -151 30 -55 6 -63 4 -83 -17
-13 -13 -27 -35 -33 -49 -18 -44 -288 -1103 -288 -1130 0 -28 31 -48 94 -59
84 -16 121 -14 164 8 68 35 246 236 450 509 47 64 44 62 162 92 105 27 244 66
289 81 35 12 50 3 51 -29 0 -7 7 -26 15 -42 18 -36 65 -51 115 -38 95 25 617
192 950 304 206 69 389 130 405 134 27 7 365 124 475 165 116 43 208 94 267
149 92 85 142 173 208 369 32 92 60 167 64 166 13 -1 374 -561 391 -608 31
-81 75 -265 263 -1101 31 -135 65 -294 77 -355 11 -60 25 -120 30 -133 14 -33
52 -44 106 -31 25 6 47 9 50 6 3 -2 14 -42 25 -88 11 -46 22 -92 25 -101 3
-12 -2 -17 -18 -20 -41 -6 -50 -41 -43 -178 8 -190 31 -291 70 -308 14 -6 25
-8 25 -3 0 5 -7 11 -14 14 -15 6 -33 73 -23 83 2 3 78 11 168 19 90 8 207 19
259 25 88 9 232 21 425 36 44 3 145 12 224 20 79 7 147 11 152 8 11 -7 12 -51
0 -58 -4 -3 -59 -10 -122 -16 -63 -6 -161 -17 -219 -25 -58 -7 -170 -21 -250
-30 -418 -46 -528 -61 -565 -76 -49 -20 -6 -22 145 -4 74 8 205 22 290 30 85
9 227 24 315 35 88 10 210 24 270 31 61 6 125 18 143 25 29 12 32 17 32 57 0
61 -35 169 -62 194 -37 34 -233 118 -378 163 -74 23 -175 55 -225 71 -49 17
-99 28 -110 25 -20 -5 -23 1 -34 72 -8 42 -16 89 -18 104 -5 24 -1 28 36 38
44 12 71 41 71 79 0 80 -231 1443 -275 1621 -7 30 -18 82 -24 115 -16 86 -131
434 -185 560 -8 17 -44 109 -81 205 -37 96 -74 189 -81 207 -8 17 -14 34 -14
38 0 7 -36 101 -183 470 -80 200 -97 235 -133 270 -41 40 -72 95 -54 95 5 0
16 -13 25 -29 24 -47 75 -72 160 -78 l75 -6 0 39 c-1 38 -8 97 -30 254 -5 41
-15 127 -20 190 -9 108 -34 300 -46 363 -5 26 -4 27 20 21 15 -3 50 -3 79 0
49 6 95 28 229 109 137 84 468 434 468 496 0 19 25 61 80 132 44 57 104 135
133 173 29 38 86 94 128 127 42 32 93 80 112 107 66 89 177 275 177 296 0 11
-9 29 -20 41 l-20 21 44 58 c25 31 43 63 40 71 -10 24 -56 48 -97 49 -32 1
-44 -5 -64 -29 -89 -104 -117 -127 -196 -161 -97 -41 -162 -99 -178 -159 -37
-138 -48 -156 -161 -271 -99 -101 -123 -134 -99 -134 4 0 58 53 119 118 111
119 111 119 143 218 27 84 38 105 75 139 38 36 151 92 162 80 13 -12 -21 -55
-59 -76 -31 -18 -50 -40 -75 -86 -19 -35 -29 -65 -24 -68 23 -14 113 -36 127
-31 8 4 32 1 54 -5 32 -10 42 -9 65 6 29 19 28 15 -23 -56 -18 -26 -67 -72
-107 -103 -51 -38 -97 -85 -144 -148 -39 -51 -95 -126 -126 -165 -30 -40 -60
-81 -66 -90 -9 -16 -16 -12 -58 37 -154 179 -200 213 -231 176 -15 -18 -193
-137 -238 -160 -18 -9 -53 -19 -77 -22 -76 -11 -186 52 -313 179 -18 17 -55
76 -84 131 -95 185 -200 307 -314 367 -98 51 -97 49 -79 151 l16 86 42 6 c52
8 96 35 130 78 27 37 56 108 56 140 0 11 12 35 27 54 37 49 43 119 14 174 -13
25 -21 59 -21 90 0 43 3 50 19 50 11 0 31 4 46 10 l26 10 -42 62 c-57 85 -153
178 -214 208 -43 21 -64 25 -154 26 -121 1 -125 4 -122 95 1 32 -4 72 -12 91
-15 36 -75 94 -111 108 -29 11 -124 19 -156 14z m258 -298 c10 -23 9 -26 -36
-42 -101 -36 -150 -63 -202 -109 l-55 -48 -6 29 c-4 16 -9 36 -12 44 -8 21
103 100 177 126 87 30 120 30 134 0z m207 -286 c39 -10 97 -22 130 -25 107
-11 105 -10 105 -60 0 -42 -2 -45 -25 -45 -33 0 -74 -40 -81 -80 -8 -39 -33
-38 -59 3 -46 73 -126 67 -161 -12 -17 -39 -20 -41 -49 -36 -69 14 -70 16 -37
37 17 10 37 36 46 59 19 46 38 168 29 182 -4 7 1 8 13 3 10 -4 51 -16 89 -26z
m235 -175 c0 -20 -6 -27 -29 -31 -46 -9 -54 -54 -10 -54 11 0 24 10 30 23 7
17 8 11 4 -27 -3 -27 -5 -59 -5 -72 0 -31 -30 -32 -56 -3 -14 16 -19 36 -19
84 0 71 20 105 62 105 18 0 23 -5 23 -25z m-211 -10 c48 -24 64 -99 36 -160
-30 -63 -98 -66 -130 -6 -37 72 -4 166 63 180 2 1 16 -6 31 -14z m248 -89 c-3
-21 -11 -44 -18 -50 -9 -8 -10 -3 -5 23 3 18 6 52 7 75 0 38 1 39 10 16 6 -14
8 -42 6 -64z m-577 38 c8 -7 44 -17 80 -24 117 -20 120 -21 120 -40 0 -37 33
-89 66 -105 51 -24 98 3 124 70 11 27 13 28 20 10 6 -14 3 -25 -12 -37 -18
-16 -18 -19 -4 -24 19 -7 46 12 46 33 0 11 6 10 26 -6 15 -12 33 -21 42 -21
11 0 13 -8 8 -41 -13 -83 -72 -161 -135 -179 -105 -30 -339 85 -355 175 l-7
35 -29 -15 c-44 -23 -78 -19 -111 14 -32 33 -38 79 -17 127 22 48 97 64 138
28z m430 -44 c0 -11 -7 -20 -15 -20 -8 0 -15 9 -15 20 0 11 7 20 15 20 8 0 15
-9 15 -20z m1820 -470 c21 -11 42 -24 45 -30 8 -13 -13 -40 -30 -40 -22 0 -75
50 -75 71 0 24 11 24 60 -1z m-24 -75 c25 -10 34 -20 32 -32 -8 -38 -121 -8
-136 35 -5 17 61 15 104 -3z m-25 -75 c23 -13 14 -38 -16 -46 -47 -12 -114 34
-87 60 8 9 77 -1 103 -14z m-1695 -192 c87 -130 100 -175 158 -568 13 -91 27
-210 31 -265 12 -203 35 -784 35 -901 l0 -121 -207 -6 c-115 -3 -220 -3 -234
0 l-25 5 18 53 c41 123 72 375 103 860 8 121 22 270 30 330 19 139 22 491 6
599 -7 43 -19 97 -27 120 l-15 41 41 -40 c23 -22 61 -70 86 -107z m1635 121
c16 -8 18 -13 8 -25 -6 -8 -21 -14 -33 -14 -27 0 -68 28 -61 41 8 12 62 11 86
-2z m59 2 c0 -6 -4 -13 -10 -16 -5 -3 -10 1 -10 9 0 9 5 16 10 16 6 0 10 -4
10 -9z m-1416 -552 c13 -57 32 -147 41 -199 20 -116 61 -338 75 -403 5 -27 10
-56 10 -65 -2 -72 -55 161 -100 433 -11 72 -32 175 -45 229 -14 54 -25 108
-25 120 1 39 18 -6 44 -115z m-754 17 c0 -3 -82 -76 -182 -163 -100 -87 -232
-203 -294 -258 -181 -162 -235 -208 -241 -201 -9 9 144 155 312 297 22 19 49
42 60 52 11 11 47 40 80 65 33 26 85 70 115 99 92 86 150 128 150 109z m357
-308 c-3 -7 -5 -2 -5 12 0 14 2 19 5 13 2 -7 2 -19 0 -25z m-467 -348 c74 -4
143 -11 153 -15 15 -6 17 -21 17 -105 0 -130 -30 -360 -52 -404 -34 -64 -104
-106 -217 -126 -72 -13 -137 -7 -226 22 -111 35 -152 108 -141 246 7 81 30
222 46 283 6 20 10 53 10 73 l0 36 138 0 c75 -1 198 -5 272 -10z m740 -1136
c-28 -87 -85 -262 -125 -389 -41 -126 -95 -297 -120 -380 -93 -303 -149 -470
-152 -454 -2 9 7 56 20 105 37 136 193 632 247 784 26 74 57 169 69 210 59
198 96 298 107 287 2 -2 -18 -76 -46 -163z m-124 -965 c79 -122 354 -579 387
-646 77 -153 143 -385 178 -615 32 -217 36 -244 64 -368 70 -314 116 -587 84
-500 -13 36 -144 702 -169 860 -44 276 -100 457 -198 644 -49 92 -269 469
-303 518 -28 39 -129 208 -129 214 0 16 28 -19 86 -107z m921 -611 c-3 -8 -6
-5 -6 6 -1 11 2 17 5 13 3 -3 4 -12 1 -19z m-3606 -249 c18 -34 119 -409 119
-444 0 -11 9 -46 20 -77 23 -71 37 -157 22 -143 -6 6 -33 100 -61 210 -27 110
-66 258 -85 329 -20 71 -36 133 -36 138 0 14 9 9 21 -13z m-902 -88 c11 -7 7
-34 -27 -152 -23 -79 -59 -216 -81 -304 -22 -88 -49 -189 -60 -225 -79 -267
-141 -489 -141 -506 0 -2 -11 -4 -24 -4 -36 0 -48 20 -35 61 17 55 220 858
235 929 8 36 19 92 25 125 6 33 18 66 27 73 18 14 61 16 81 3z m218 -114 c-15
-25 -42 -52 -66 -65 -46 -26 -151 -42 -151 -23 0 6 16 11 35 11 73 0 140 43
178 115 15 29 22 35 25 22 2 -10 -8 -37 -21 -60z m514 -163 c27 -109 48 -206
48 -215 1 -11 -52 -30 -216 -78 -206 -59 -218 -61 -231 -44 -63 85 -99 207
-87 303 12 93 21 103 137 143 189 66 283 95 292 93 6 -1 31 -92 57 -202z
m-457 -436 c-6 -9 -74 40 -74 52 0 4 -11 18 -25 31 -13 13 -25 31 -25 39 0 8
29 -15 64 -50 36 -35 62 -68 60 -72z m-139 -43 c39 -40 56 -65 46 -65 -15 0
-121 106 -121 122 0 17 16 5 75 -57z m4620 -453 c-6 -5 -93 -25 -195 -45 -102
-20 -238 -48 -303 -62 -126 -27 -157 -30 -141 -16 11 11 178 51 314 76 52 10
133 25 180 35 93 20 160 25 145 12z m-63 -342 c26 -130 25 -134 -34 -193 -63
-62 -133 -101 -210 -117 -51 -10 -61 -9 -95 9 -22 11 -46 27 -54 37 -13 16
-30 89 -44 199 l-7 50 199 52 c109 28 205 51 213 50 10 -2 20 -28 32 -87z
m165 -180 c-8 -36 -70 -147 -74 -133 -4 12 64 163 74 163 3 0 3 -13 0 -30z
m104 -105 c-29 -59 -51 -89 -51 -67 0 5 17 45 37 88 23 50 38 72 41 61 2 -10
-10 -47 -27 -82z m-574 -161 c36 -27 77 -84 88 -121 11 -39 -11 -25 -30 17
-27 61 -74 97 -145 112 -77 15 -79 33 -3 24 38 -4 68 -15 90 -32z"/>
<path d="M7425 10729 c-9 -14 -4 -18 33 -25 25 -5 32 -3 32 9 0 8 -10 17 -22
21 -31 8 -36 8 -43 -5z"/>
<path d="M7202 10704 c-20 -14 -33 -51 -14 -42 37 18 61 28 85 33 15 3 25 10
22 15 -10 15 -68 12 -93 -6z"/>
<path d="M7243 10580 c-25 -10 -26 -11 -17 -34 10 -25 43 -19 54 10 6 14 10
27 10 30 0 6 -23 4 -47 -6z"/>
<path d="M6866 10528 c-21 -30 -20 -54 4 -78 26 -26 46 -25 75 5 30 29 31 49
5 75 -27 27 -65 26 -84 -2z m74 -17 c20 -38 -13 -71 -51 -51 -21 12 -25 40 -7
58 18 18 46 14 58 -7z"/>
<path d="M7170 10394 c0 -25 56 -74 84 -74 14 0 29 0 33 -1 4 0 9 4 11 10 2 5
-15 15 -36 21 -23 6 -47 21 -56 35 -19 28 -36 33 -36 9z"/>
<path d="M6528 8622 c-16 -2 -28 -5 -28 -7 0 -3 -12 -80 -26 -172 -50 -326
-17 -390 207 -401 123 -6 197 14 250 66 32 33 38 47 53 131 16 87 49 372 43
377 -4 3 -472 9 -499 6z"/>
<path d="M4240 5329 c0 -12 4 -38 10 -58 5 -20 19 -82 31 -139 12 -56 28 -110
35 -120 20 -25 18 -3 -10 113 -13 55 -29 126 -35 157 -13 59 -31 87 -31 47z"/>
<path d="M8560 3958 c-19 -5 -57 -13 -85 -18 -51 -8 -186 -43 -217 -55 -10 -4
-18 -11 -18 -17 0 -5 8 -7 18 -4 17 6 285 72 330 81 12 3 22 10 22 15 0 11 -3
11 -50 -2z"/>
<path d="M7015 7710 c-43 -13 -95 -19 -187 -19 l-126 -1 -6 -27 c-3 -16 -10
-58 -16 -95 -6 -37 -13 -74 -16 -82 -8 -21 38 -21 124 -1 90 21 175 67 217
118 42 50 90 128 78 126 -4 -1 -35 -9 -68 -19z"/>
</g>
</svg>
